# xmcd
# 
# Track frame offsets:
#     150
#     11837
#     22967
#     35107
#     47977
#     60865
#     71065
#     80987
#     93010
#     102825
#     113312
#     126142
#     137957
#     149092
# 
# Disc length: 2146
# 
# Revision: 4
# Processed by: cddbd v1.5.2PL0 Copyright (c) Steve Scherf et al.
# Submitted via: fre:ac v1.1beta1pre5
# 
DISCID=c308600e
DTITLE=Billy Boy Arnold - I Wish You Would
DYEAR=0
DGENRE=Blues
TTITLE0=Sweet On You Baby
TTITLE1=You Got To Love Me
TTITLE2=I Wish You Would
TTITLE3=I Was Fooled
TTITLE4=Don't Stay Out All Night
TTITLE5=I Ain't Got You
TTITLE6=Here's My Picture
TTITLE7=You've Got Me Wrong
TTITLE8=My Heart Is Crying
TTITLE9=Kissing At Midnight
TTITLE10=Prisoner's Plea
TTITLE11=No, No, No, No, No
TTITLE12=Everyday, Every Night
TTITLE13=Rockinitis
EXTD=Charly CD BM 34 (Charly Blues Masterworks Vol.34\n\nBilly Boy Arnold:  vocals, harmonica\nOtis Spann:  piano\nBo Diddley:  guitar\nJames Bradford:  bass\nClifton James:  drums\nJerome Green:  maracas\nHenry Gray:  piano\nJody Williams:  guitar\nMilto
EXTD=n Rector:  bass\nEarl Phillips:  drums\nQuinn Wilson:  bass\nFred Below:  drums\nHenry Gray:  piano\nSyl Johnson:  guitar\nOdell Campbell:  guitar\nSunnyland Slim:  piano\nMack Thompson:  bass\nReynolds Howard:  drums\n\nRecorded Chicago:  1955 - 57
EXTT0=
EXTT1=
EXTT2=
EXTT3=
EXTT4=
EXTT5=
EXTT6=
EXTT7=
EXTT8=
EXTT9=
EXTT10=
EXTT11=
EXTT12=
EXTT13=
PLAYORDER=
